# xmcd
#
# Track frame offsets:
#	150
#	27182
#	48302
#	69100
#	92282
#	119375
#	134612
#	152870
#	170812
#
# Disc length: 2514 seconds
#
# Revision: 0
# Processed by: cddbd v1.5.2PL0 Copyright (c) Steve Scherf et al.
# Submitted via: dBpowerAMP V4.0
#
DISCID=7109d009
DTITLE=Splendor - Splendor
DYEAR=1979
DGENRE=Soul
TTITLE0=All Night Long
TTITLE1=Special Lady
TTITLE2=Always On Your Side
TTITLE3=Splendorland
TTITLE4=Take Me To Your Disco
TTITLE5=Sunny Side Up
TTITLE6=Follow Your Dream
TTITLE7=A Brighter Day
TTITLE8=Carnival
EXTD=Sean P.
EXTT0=
EXTT1=
EXTT2=
EXTT3=
EXTT4=
EXTT5=
EXTT6=
EXTT7=
EXTT8=
PLAYORDER=
